PathFileType	4	(X/Y/Z)	/Users/itak/Documents/Research/Walk-IL/dataset/trc/00303_00010.trc
DataRate	CameraRate	NumFrames	NumMarkers	Units	OrigDataRate	OrigDataStartFrame	OrigNumFrames
100.000000	100.000000	4	56	mm	100.000000	346	396
Frame#	Time	RPSI			LPSI			L3			STRN			T10			C7			CLAV			RBAK			LBAK			LSHO			LUPA			LAEL			LAOL			LWTS			LWPS			LFRA			LIFD			LHPS			LHTS			RSHO			RUPA			RAEL			RAOL			RWTS			RWPS			RFRA			RIFD			RBHD			LFHD			RFHD			LBHD			LHIP			RHIP			RASI			LASI			LKNE			LTHI			LANK			LTIP			LTOE			LMT1			LMT5			LHEE			RKNE			RTHI			RTIP			RTOE			RMT1			RMT5			RHEE			RHPS			RHTS			RANK			*53			*54			*55			
		X1	Y1	Z1	X2	Y2	Z2	X3	Y3	Z3	X4	Y4	Z4	X5	Y5	Z5	X6	Y6	Z6	X7	Y7	Z7	X8	Y8	Z8	X9	Y9	Z9	X10	Y10	Z10	X11	Y11	Z11	X12	Y12	Z12	X13	Y13	Z13	X14	Y14	Z14	X15	Y15	Z15	X16	Y16	Z16	X17	Y17	Z17	X18	Y18	Z18	X19	Y19	Z19	X20	Y20	Z20	X21	Y21	Z21	X22	Y22	Z22	X23	Y23	Z23	X24	Y24	Z24	X25	Y25	Z25	X26	Y26	Z26	X27	Y27	Z27	X28	Y28	Z28	X29	Y29	Z29	X30	Y30	Z30	X31	Y31	Z31	X32	Y32	Z32	X33	Y33	Z33	X34	Y34	Z34	X35	Y35	Z35	X36	Y36	Z36	X37	Y37	Z37	X38	Y38	Z38	X39	Y39	Z39	X40	Y40	Z40	X41	Y41	Z41	X42	Y42	Z42	X43	Y43	Z43	X44	Y44	Z44	X45	Y45	Z45	X46	Y46	Z46	X47	Y47	Z47	X48	Y48	Z48	X49	Y49	Z49	X50	Y50	Z50	X51	Y51	Z51	X52	Y52	Z52	X53	Y53	Z53	X54	Y54	Z54	X55	Y55	Z55	X56	Y56	Z56	

347	3.46	528.5460205078125	1007.570068359375	-133.4611968994141	351.6268920898438	999.3506469726562	-143.8988342285156	438.9695434570312	1068.3544921875	-155.5738220214844	438.0536193847656	1248.116943359375	-399.0404968261719	438.3011169433594	1180.224243164062	-135.8864440917969	420.9485473632812	1426.568603515625	-175.3498229980469	431.0896606445312	1346.251708984375	-333.6058959960938	498.0431823730469	1289.169677734375	-125.0254135131836	314.528076171875	1387.208129882812	-164.1225891113281	264.2993774414062	1393.711791992188	-257.5978698730469	189.1005401611328	1273.054443359375	-246.494140625	181.9528503417969	1069.735473632812	-275.8855285644531	226.8408050537109	1053.523559570312	-201.4717254638672	261.0093383789062	853.9249877929688	-354.0128173828125	190.2137145996094	838.7726440429688	-340.236328125	181.2215423583984	966.32080078125	-299.4852905273438	264.6149597167969	668.9583740234375	-365.4285278320312	196.6171112060547	750.7891235351562	-347.3636779785156	251.1753234863281	755.9591064453125	-385.4446105957031	580.0006103515625	1405.91748046875	-240.3510894775391	645.7385864257812	1345.908813476562	-236.2967681884766	700.12255859375	1080.507202148438	-249.5760498046875	614.5740966796875	1069.486450195312	-210.6304321289062	636.563232421875	874.1795043945312	-377.7445678710938	712.6538696289062	862.81201171875	-342.001708984375	709.43896484375	1016.331848144531	-282.8545532226562	632.3341674804688	691.97314453125	-416.4220275878906	495.3114318847656	1576.924926757812	-192.5227661132812	363.5213623046875	1640.271484375	-347.1681518554688	456.438232421875	1640.036499023438	-353.3781433105469	349.4621887207031	1568.15283203125	-186.5673675537109	259.380126953125	948.8280639648438	-216.6624145507812	639.3795166015625	959.1886596679688	-222.1890258789062	565.7711791992188	956.7540893554688	-354.4739685058594	313.3880004882812	954.447265625	-352.7263488769531	291.8570861816406	482.8554992675781	-254.2070922851562	270.2202758789062	625.8582763671875	-256.6862487792969	304.1190185546875	44.32050323486328	-188.9158630371094	287.3455505371094	261.8172607421875	-210.9387054443359	364.6789855957031	36.86529159545898	-395.1514282226562	404.2776489257812	27.09115409851074	-324.4425964355469	292.7965087890625	40.36304092407227	-311.9867248535156	362.7640991210938	35.26688766479492	-141.4697418212891	600.8041381835938	482.4124145507812	-247.0338745117188	630.9546508789062	743.7684936523438	-284.3924560546875	589.6631469726562	361.7003784179688	-255.7490844726562	518.6696166992188	39.12642288208008	-393.1119384765625	481.2090148925781	37.63669586181641	-333.41259765625	594.9737548828125	29.32112503051758	-303.2529296875	530.8092041015625	37.53602981567383	-144.5745697021484	705.0078125	757.2359619140625	-384.8009643554688	649.8485107421875	765.7559814453125	-428.664794921875	579.318603515625	39.95925903320312	-198.5602569580078	nan	nan	nan	nan	nan	nan	nan	nan	nan	
348	3.47	528.2979125976562	1007.669128417969	-133.898681640625	351.5663757324219	999.4161376953125	-144.0113830566406	439.0013732910156	1068.39404296875	-155.8013610839844	437.544677734375	1248.067138671875	-399.2706909179688	438.2037048339844	1180.181762695312	-136.1580657958984	420.6632995605469	1426.522338867188	-175.5339050292969	430.5958557128906	1346.192749023438	-333.8321228027344	497.7894592285156	1289.149291992188	-125.3622512817383	314.1697692871094	1387.098754882812	-164.2461090087891	263.8529052734375	1393.602416992188	-257.6621398925781	188.7324371337891	1272.920288085938	-246.5233917236328	181.9463653564453	1069.622192382812	-276.1730041503906	226.6371612548828	1053.318725585938	-201.7030334472656	261.6236877441406	854.1428833007812	-354.7310485839844	190.8294219970703	838.8094482421875	-341.1904296875	181.3694000244141	966.2178344726562	-300.0585021972656	265.7513427734375	669.263427734375	-366.79052734375	197.3960876464844	750.8597412109375	-348.6419677734375	252.0599975585938	756.29345703125	-386.5456848144531	579.5914306640625	1405.933715820312	-240.7561340332031	645.376953125	1345.935424804688	-236.7987823486328	699.7333374023438	1080.527587890625	-250.2222137451172	614.1826171875	1069.521484375	-211.1480712890625	635.8739013671875	874.2875366210938	-378.3264465332031	712.0172119140625	862.8558349609375	-342.7227172851562	708.9629516601562	1016.368347167969	-283.5255737304688	631.5672607421875	692.0433349609375	-417.0451965332031	494.9899291992188	1576.837768554688	-192.7042694091797	363.2597961425781	1640.307250976562	-347.345947265625	456.1522216796875	1639.980224609375	-353.5784912109375	349.0728759765625	1568.167602539062	-186.7409515380859	259.2344360351562	948.8258056640625	-216.6844329833984	639.23046875	959.2369995117188	-222.4461059570312	565.4769897460938	956.6979370117188	-354.7890625	313.1282653808594	954.3621826171875	-352.76513671875	291.7915649414062	482.8555908203125	-254.0523529052734	270.1484375	625.8447265625	-256.5521850585938	304.1157531738281	44.31467819213867	-188.9160919189453	287.2540893554688	261.8392639160156	-210.8774871826172	364.6706237792969	36.85746002197266	-395.1564636230469	404.2659606933594	27.09486770629883	-324.4375	292.7847595214844	40.35616302490234	-311.9868774414062	362.7522277832031	35.27529525756836	-141.4752044677734	600.7447509765625	482.4182434082031	-247.0596771240234	630.8329467773438	743.7620239257812	-284.6206359863281	589.5713500976562	361.7099304199219	-255.7675628662109	518.6646728515625	39.10944366455078	-393.1227416992188	481.2048645019531	37.62813568115234	-333.423828125	594.9637451171875	29.30879783630371	-303.2467956542969	530.8093872070312	37.53263854980469	-144.5794372558594	704.2576293945312	757.3206176757812	-385.5409851074219	649.001953125	765.8353271484375	-429.2621459960938	579.3085327148438	39.97417831420898	-198.5717926025391	nan	nan	nan	nan	nan	nan	nan	nan	nan	
349	3.48	528.0621948242188	1007.763977050781	-134.3339233398438	351.5310668945312	999.4781494140625	-144.1011657714844	439.0380249023438	1068.442993164062	-156.0256195068359	437.0296936035156	1248.012817382812	-399.5022583007812	438.1503295898438	1180.161865234375	-136.4209289550781	420.3692321777344	1426.489624023438	-175.7455749511719	430.1040344238281	1346.14794921875	-334.0771789550781	497.5958557128906	1289.150268554688	-125.6926193237305	313.8232727050781	1387.00048828125	-164.3728332519531	263.3974609375	1393.493896484375	-257.7266540527344	188.3617095947266	1272.783813476562	-246.5233917236328	181.9431610107422	1069.5146484375	-276.43212890625	226.4482879638672	1053.128784179688	-201.8989868164062	262.2085571289062	854.3596801757812	-355.3913879394531	191.4136657714844	838.8548583984375	-342.0781555175781	181.5159149169922	966.12548828125	-300.5828247070312	266.8362731933594	669.5548095703125	-368.060302734375	198.1397094726562	750.938232421875	-349.841064453125	252.9225006103516	756.6264038085938	-387.563720703125	579.1922607421875	1405.968017578125	-241.2021179199219	645.0280151367188	1345.986450195312	-237.3361358642578	699.3583374023438	1080.572875976562	-250.8273773193359	613.832763671875	1069.58447265625	-211.6197052001953	635.2047119140625	874.3435668945312	-378.7633361816406	711.4201049804688	862.8777465820312	-343.3008422851562	708.5003662109375	1016.412902832031	-284.1325378417969	630.8627319335938	692.0798950195312	-417.4373168945312	494.6743469238281	1576.75537109375	-192.8945007324219	363.014404296875	1640.363403320312	-347.5235290527344	455.8533325195312	1639.933715820312	-353.7556762695312	348.7032775878906	1568.182983398438	-186.9201049804688	259.0893859863281	948.8347778320312	-216.6815185546875	639.1212158203125	959.3347778320312	-222.74072265625	565.22021484375	956.6881103515625	-355.1394348144531	312.86474609375	954.2991333007812	-352.7861328125	291.6856689453125	482.8617248535156	-253.9892883300781	270.0618591308594	625.838623046875	-256.4713745117188	304.116455078125	44.31350326538086	-188.9215393066406	287.19287109375	261.8453979492188	-210.8665008544922	364.6666564941406	36.84457397460938	-395.1677551269531	404.2594299316406	27.09720230102539	-324.4346923828125	292.7762756347656	40.35146713256836	-311.9849243164062	362.7421569824219	35.28839492797852	-141.4840393066406	600.6825561523438	482.4189453125	-247.0787048339844	630.665283203125	743.74072265625	-284.8890380859375	589.4859619140625	361.7217712402344	-255.7719116210938	518.6605224609375	39.09103393554688	-393.1340637207031	481.2008361816406	37.61819076538086	-333.43505859375	594.9522705078125	29.29552268981934	-303.240966796875	530.8133544921875	37.53633117675781	-144.5863037109375	703.5375366210938	757.3566284179688	-386.0773315429688	648.1854858398438	765.8292846679688	-429.6577758789062	579.3006591796875	39.98946380615234	-198.5846099853516	nan	nan	nan	nan	nan	nan	nan	nan	nan	
350	3.49	527.859619140625	1007.850708007812	-134.7549285888672	351.5152282714844	999.536865234375	-144.1714477539062	439.0748596191406	1068.4990234375	-156.2471618652344	436.5108032226562	1247.954833984375	-399.7393493652344	438.1286315917969	1180.164672851562	-136.6797790527344	420.0612487792969	1426.470092773438	-175.9851684570312	429.6204223632812	1346.119018554688	-334.338623046875	497.4589538574219	1289.171020507812	-126.0142517089844	313.4908752441406	1386.912231445312	-164.5029754638672	262.9412231445312	1393.38525390625	-257.7883605957031	188.0001220703125	1272.646240234375	-246.4969177246094	181.9351501464844	1069.407592773438	-276.6680297851562	226.2787780761719	1052.957641601562	-202.0560913085938	262.7566833496094	854.57958984375	-355.9943237304688	191.9585266113281	838.905517578125	-342.8970947265625	181.6587371826172	966.0407104492188	-301.0585021972656	267.8576354980469	669.8336181640625	-369.2314758300781	198.8553771972656	751.023193359375	-350.9483337402344	253.7552337646484	756.951904296875	-388.4940795898438	578.8031005859375	1406.020263671875	-241.6843109130859	644.69189453125	1346.06201171875	-237.9046783447266	698.9974975585938	1080.641967773438	-251.3937225341797	613.5374755859375	1069.67529296875	-212.0405426025391	634.5557250976562	874.34619140625	-379.0556030273438	710.868896484375	862.8792114257812	-343.7397155761719	708.0533447265625	1016.465698242188	-284.6777954101562	630.2088623046875	692.0853881835938	-417.5973815917969	494.3617858886719	1576.677490234375	-193.0918579101562	362.7799072265625	1640.4375	-347.7046203613281	455.5433349609375	1639.899658203125	-353.9057312011719	348.3553466796875	1568.200317382812	-187.1060028076172	258.9472961425781	948.8526000976562	-216.6564178466797	639.0523071289062	959.4829711914062	-223.0704956054688	565.0018920898438	956.7263793945312	-355.5230407714844	312.5895690917969	954.259521484375	-352.7940979003906	291.5398254394531	482.8740539550781	-254.0088348388672	269.9585571289062	625.83837890625	-256.4422302246094	304.1220397949219	44.31742477416992	-188.9327392578125	287.1631774902344	261.8345336914062	-210.8970794677734	364.6672973632812	36.82655334472656	-395.1852416992188	404.2580871582031	27.09685516357422	-324.4352111816406	292.770263671875	40.34866333007812	-311.9811401367188	362.7359313964844	35.30546951293945	-141.4963989257812	600.616455078125	482.4151916503906	-247.0921020507812	630.45654296875	743.7077026367188	-285.1930236816406	589.4066162109375	361.7351684570312	-255.7631683349609	518.65625	39.07213592529297	-393.1464233398438	481.1973266601562	37.60723876953125	-333.4460754394531	594.9417114257812	29.28450584411621	-303.2373962402344	530.8222045898438	37.55052947998047	-144.5958862304688	702.8525390625	757.3400268554688	-386.4143981933594	647.4069213867188	765.7406616210938	-429.8561096191406	579.2946166992188	40.00602722167969	-198.5981750488281	nan	nan	nan	nan	nan	nan	nan	nan	nan	
